<svg xmlns="http://www.w3.org/2000/svg" xmlns:xlink="http://www.w3.org/1999/xlink" width="32" height="21" viewBox="0 0 32 21"><defs><path id="a" d="M980.56 1518.86c.3.49 1.74 2.51 3.25 4.56 1.51 2.04 2.71 3.84 2.71 4.05 0 .22-6.42.39-14.27.39-11.63 0-14.27.18-14.27.99 0 .82 2.43.92 14.27.6 7.85-.21 14.27-.15 14.27.14 0 .29-1.47 2.58-3.26 5.05-4.48 6.21-2.3 5.57 2.67-.78l4.09-5.22-4.32-5.33c-2.4-2.97-4.62-5.33-5-5.33-.37 0-.44.39-.14.88z"/></defs><g transform="translate(-958 -1518)"><use fill="silver" xlink:href="#a"/></g></svg>