<?xml version="1.0" encoding="iso-8859-1"?>
<!-- Generator: Adobe Illustrator 19.0.0, SVG Export Plug-In . SVG Version: 6.00 Build 0)  -->
<svg version="1.1" id="Capa_1" xmlns="http://www.w3.org/2000/svg" xmlns:xlink="http://www.w3.org/1999/xlink" x="0px" y="0px"
	 viewBox="0 0 512 512" style="enable-background:new 0 0 512 512;" xml:space="preserve">
<g>
	<g>
		<path d="M502.067,18.654c-2.287-1.041-4.71-1.382-7.134-1.399v-0.188h-358.4c-4.079,0-8.021,1.451-11.11,4.113L5.956,123.58
			l0.137,0.154C2.441,126.857,0,131.345,0,136.533v341.333c0,9.421,7.646,17.067,17.067,17.067h358.4
			c4.71,0,8.977-1.911,12.066-5.001L507,370.5c3.208-3.208,5-7.543,5-12.066V34.167C512,27.494,508.109,21.453,502.067,18.654z
			 M358.4,460.8H34.133V153.6H358.4V460.8z M369.152,119.467H63.198l79.65-68.267h305.971L369.152,119.467z M477.867,351.369
			l-85.333,85.316V144.384l85.333-73.114V351.369z" fill="#cccccc"/>
	</g>
</g>
<g>
</g>
<g>
</g>
<g>
</g>
<g>
</g>
<g>
</g>
<g>
</g>
<g>
</g>
<g>
</g>
<g>
</g>
<g>
</g>
<g>
</g>
<g>
</g>
<g>
</g>
<g>
</g>
<g>
</g>
</svg>
