<svg xmlns="http://www.w3.org/2000/svg" xmlns:xlink="http://www.w3.org/1999/xlink" width="17" height="17" viewBox="0 0 17 17"><defs><path id="a" d="M1275.26 414.35c1.15-.12 2.66-.7 2.25-2.33h-3.03l-.08-.55h3.33c1.19 0 2.01-1.19 1.22-2.03h-3.97l-.08-.51h4.95c.85 0 1.18-1.64.19-1.8h-4.96l-.08-.5h4.93c.8 0 1.18-.64 1.04-1.1-.13-.44-.36-.92-2.06-1.06l-6.6-.52 1.07-1.13c.47-.57 1.2-1.57.23-3.45-.32-.57-1.72-.49-1.57.2.14.71.04 1.25-.27 1.6-.31.36-1 1.12-1.86 1.45-.87.33-4.37 1.46-4.29 4.02l.25 7.19c3.13.58 8.23.64 9.39.52z"/></defs><g transform="translate(-1265 -398)"><use fill="#f0f0f0" xlink:href="#a"/><use fill="#fff" fill-opacity="0" stroke="silver" stroke-linecap="round" stroke-linejoin="round" stroke-miterlimit="50" xlink:href="#a"/></g></svg>