<?xml version="1.0" encoding="iso-8859-1"?>
<!-- Generator: Adobe Illustrator 19.0.0, SVG Export Plug-In . SVG Version: 6.00 Build 0)  -->
<svg version="1.1" id="Layer_1" xmlns="http://www.w3.org/2000/svg" xmlns:xlink="http://www.w3.org/1999/xlink" x="0px" y="0px"
	 viewBox="0 0 512 512" style="enable-background:new 0 0 512 512;" xml:space="preserve">
<g>
	<g>
		<path d="M450.619,252.577c-1.474-2.98-4.511-4.866-7.836-4.866H227.403c-1.734,0.002-3.429,0.517-4.869,1.483l-57.234,38.372
			c-2.421,1.624-3.873,4.347-3.873,7.261c0,2.914,1.452,5.638,3.873,7.261l57.234,38.372c1.44,0.965,3.134,1.482,4.869,1.482
			h215.379c3.326,0,6.362-1.886,7.836-4.866C463.705,310.618,463.705,279.031,450.619,252.577z M196.99,302.283l-11.122-7.458
			l11.122-7.456c0.669,2.408,1.028,4.908,1.028,7.455C198.018,297.373,197.659,299.875,196.99,302.283z M222.976,319.706
			l-11.011-7.383c2.311-5.503,3.538-11.424,3.538-17.498c0-6.07-1.226-11.991-3.536-17.495l11.012-7.383
			C227.745,286.157,227.745,303.496,222.976,319.706z M392.998,324.456H239.824c1.996-6.834,3.284-13.837,3.866-20.888h154.653
			C397.546,310.705,395.755,317.742,392.998,324.456z M243.69,286.084c-0.583-7.052-1.871-14.053-3.865-20.888h153.173
			c2.755,6.714,4.548,13.751,5.345,20.888H243.69z M437.145,324.456h-25.519c6.236-19.191,6.236-40.069,0-59.26h25.519
			C444.897,284.085,444.897,305.567,437.145,324.456z" fill="#cccccc"/>
	</g>
</g>
<g>
	<g>
		<path d="M503.258,151.708H377.642v-31.533c0-25.43-20.688-46.119-46.119-46.119H218.953c-25.43,0-46.119,20.69-46.119,46.119v28.8
			l-36.341-62.944c-2.413-4.181-7.763-5.614-11.942-3.2L4.371,152.216c-2.008,1.16-3.472,3.069-4.073,5.308
			s-0.287,4.626,0.873,6.633l52.79,91.434v173.609c0,4.828,3.913,8.742,8.742,8.742h440.554c4.829,0,8.742-3.914,8.742-8.742V160.45
			C512,155.622,508.086,151.708,503.258,151.708z M360.158,120.176v31.533h-14.427v-34.487c0-9.312-2.974-17.938-8.008-24.996
			C350.541,95.066,360.158,106.516,360.158,120.176z M222.229,120.175c0-15.789,12.846-28.634,28.634-28.634h51.703
			c14.16,0,25.681,11.52,25.681,25.681v34.487H222.229V120.175z M190.317,120.176c0-14.266,10.488-26.126,24.157-28.282
			c-6.089,7.817-9.729,17.63-9.729,28.282v31.533h-14.428V120.176z M81.943,420.459H71.446V285.874l10.497,18.181V420.459z
			 M86.377,152.843c-2.741,1.551-4.435,4.457-4.435,7.607v108.638l-61.26-106.102l105.039-60.643l28.5,49.365l-63.291,0.003
			C89.362,151.673,87.789,152.045,86.377,152.843z M109.925,420.459H99.427V169.196h10.497V420.459z M127.408,420.459v-32.571
			c16.28,3.442,29.129,16.289,32.57,32.571H127.408z M494.516,420.459h-32.569c3.442-16.281,16.289-29.129,32.569-32.571V420.459z
			 M494.516,370.135c-25.941,3.823-46.501,24.383-50.323,50.324H177.732c-3.823-25.941-24.383-46.502-50.323-50.324V169.192h367.107
			V370.135z" fill="#cccccc"/>
	</g>
</g>
<g>
</g>
<g>
</g>
<g>
</g>
<g>
</g>
<g>
</g>
<g>
</g>
<g>
</g>
<g>
</g>
<g>
</g>
<g>
</g>
<g>
</g>
<g>
</g>
<g>
</g>
<g>
</g>
<g>
</g>
</svg>
